<svg width="127" height="85" viewBox="0 0 127 85" fill="none" xmlns="http://www.w3.org/2000/svg">
<g clip-path="url(#clip0_154_379)">
<path d="M2.11135 29.9891C2.11135 29.9891 -1.96487 22.0182 3.14219 14.326C7.27878 7.99851 16.4671 7.45904 21.0488 13.4504C22.4436 15.2949 23.6642 17.8303 24.52 21.3109C28.3978 37.4843 21.9686 42.6708 21.9686 42.6708C21.9686 42.6708 9.94138 51.1237 2.11135 29.9891Z" fill="#D3C4D3"/>
<path d="M40.1946 18.5236C40.1946 18.5236 45.178 -1.17091 58.6976 1.13793C58.6976 1.13793 73.118 1.58313 72.7058 19.0053C72.2937 36.4274 62.8659 53.9803 50.5203 50.6946C50.3256 50.6147 31.7091 49.0867 40.1946 18.5236Z" fill="#D3C4D3"/>
<path d="M89.2309 33.669C99.9647 23.6795 108.328 32.5635 108.328 32.5635C117.351 39.8215 107.7 53.9468 107.7 53.9468C93.1175 76.3593 81.7649 65.4471 81.6599 65.3391C72.6556 59.3962 78.4617 43.6581 89.2309 33.669Z" fill="#D3C4D3"/>
<path d="M126.089 73.773C124.622 80.2888 118.448 82.1538 118.448 82.1538C103.552 88.6191 101.958 78.1355 101.958 78.1355C101.958 78.1355 101.45 72.1639 111.79 66.1194C114.007 64.8193 115.926 64.1956 117.592 64.0125C123.016 63.4022 127.301 68.4631 126.089 73.773Z" fill="#D3C4D3"/>
</g>
<defs>
<clipPath id="clip0_154_379">
<rect width="127" height="84" fill="white" transform="translate(0 0.359375)"/>
</clipPath>
</defs>
</svg>
