<svg width="193" height="81" viewBox="0 0 193 81" fill="none" xmlns="http://www.w3.org/2000/svg">
<g clip-path="url(#clip0_138_1087)">
<path d="M57.0457 57.4799C49.894 51.9332 56.5265 39.8061 69.5922 34.5394L84.1137 28.6858C85.7261 28.0359 87.2971 27.2509 88.7849 26.3516L102.941 17.796C114.799 10.6291 128.308 12.4023 128.807 21.1912L129.189 27.9117C129.292 29.7273 129.984 31.3315 131.217 32.6106L135.884 37.452C141.711 43.4974 134.567 54.9778 121.97 59.8121L106.956 65.5742C104.703 66.4387 102.525 67.5673 100.532 68.9025L91.2442 75.125C78.9397 83.3688 63.94 81.5815 64.1131 71.8921L64.2025 66.8864C64.2469 64.4058 63.2357 62.2808 61.2944 60.7752L57.0457 57.4799Z" fill="#F2E5F3"/>
</g>
<path d="M75.25 40.5728V38.2395H77.5833V40.5728H75.25ZM84.5833 63.9062C85.5167 63.9062 86.3333 63.5562 87.0333 62.8562C87.7333 62.1562 88.0833 61.3395 88.0833 60.4062C88.0833 59.4728 87.7333 58.6562 87.0333 57.9562C86.3333 57.2562 85.5167 56.9062 84.5833 56.9062C83.65 56.9062 82.8333 57.2562 82.1333 57.9562C81.4333 58.6562 81.0833 59.4728 81.0833 60.4062C81.0833 61.3395 81.4333 62.1562 82.1333 62.8562C82.8333 63.5562 83.65 63.9062 84.5833 63.9062ZM84.5833 59.2395C84.8944 59.2395 85.1667 59.3562 85.4 59.5895C85.6333 59.8228 85.75 60.0951 85.75 60.4062C85.75 60.7173 85.6333 60.9895 85.4 61.2228C85.1667 61.4562 84.8944 61.5728 84.5833 61.5728C84.2722 61.5728 84 61.4562 83.7667 61.2228C83.5333 60.9895 83.4167 60.7173 83.4167 60.4062C83.4167 60.0951 83.5333 59.8228 83.7667 59.5895C84 59.3562 84.2722 59.2395 84.5833 59.2395ZM69.4167 63.9062C70.35 63.9062 71.1667 63.5562 71.8667 62.8562C72.5667 62.1562 72.9167 61.3395 72.9167 60.4062C72.9167 59.4728 72.5667 58.6562 71.8667 57.9562C71.1667 57.2562 70.35 56.9062 69.4167 56.9062C68.4833 56.9062 67.6667 57.2562 66.9667 57.9562C66.2667 58.6562 65.9167 59.4728 65.9167 60.4062C65.9167 61.3395 66.2667 62.1562 66.9667 62.8562C67.6667 63.5562 68.4833 63.9062 69.4167 63.9062ZM69.4167 59.2395C69.7278 59.2395 70 59.3562 70.2333 59.5895C70.4667 59.8228 70.5833 60.0951 70.5833 60.4062C70.5833 60.7173 70.4667 60.9895 70.2333 61.2228C70 61.4562 69.7278 61.5728 69.4167 61.5728C69.1055 61.5728 68.8333 61.4562 68.6 61.2228C68.3667 60.9895 68.25 60.7173 68.25 60.4062C68.25 60.0951 68.3667 59.8228 68.6 59.5895C68.8333 59.3562 69.1055 59.2395 69.4167 59.2395ZM69.4167 68.5728C71.1278 68.5728 72.6833 68.1062 74.0833 67.1728C75.4833 66.2395 76.4944 64.9951 77.1167 63.4395C77.8944 65.4617 79.3333 66.9395 81.4333 67.8728C83.5333 68.8062 85.5944 68.8451 87.6167 67.9895C89.6389 67.1339 91.1167 65.6562 92.05 63.5562C92.9833 61.4562 93.0611 59.3951 92.2833 57.3728C91.6611 55.9728 90.8055 54.8451 89.7167 53.9895C88.6278 53.1339 87.3055 52.5506 85.75 52.2395L81.0833 43.8395V19.3395C81.0833 16.5395 80.7722 13.8562 80.15 11.2895C79.5278 8.72284 78.5944 6.27284 77.35 3.9395C77.35 3.62839 77.1944 3.43395 76.8833 3.35617C76.5722 3.27839 76.2611 3.27839 75.95 3.35617C75.6389 3.43395 75.4833 3.62839 75.4833 3.9395C72.9944 8.76172 71.75 13.8951 71.75 19.3395V43.8395L66.85 52.7062C64.6722 53.3284 63.0778 54.6506 62.0667 56.6728C61.0555 58.6951 60.9389 60.7951 61.7167 62.9728C62.1833 64.6839 63.1555 66.0451 64.6333 67.0562C66.1111 68.0673 67.7055 68.5728 69.4167 68.5728ZM73.3833 53.1728L76.4167 49.6728L79.9167 53.6395C78.5167 54.5728 77.5833 55.8173 77.1167 57.3728C76.3389 55.5062 75.0944 54.1062 73.3833 53.1728ZM90.4167 60.4062C90.4167 61.9617 89.8333 63.3228 88.6667 64.4895C87.5 65.6562 86.1389 66.2395 84.5833 66.2395C83.0278 66.2395 81.6667 65.6562 80.5 64.4895C79.3333 63.3228 78.75 61.9617 78.75 60.4062C78.75 58.8506 79.3333 57.4895 80.5 56.3228C81.6667 55.1562 83.0278 54.5728 84.5833 54.5728C86.1389 54.5728 87.5 55.1562 88.6667 56.3228C89.8333 57.4895 90.4167 58.8506 90.4167 60.4062ZM74.0833 43.6062V19.3395C74.0833 15.1395 74.8611 11.0951 76.4167 7.20617C77.0389 8.76172 77.5055 10.3173 77.8167 11.8728C78.4389 14.3617 78.75 16.8506 78.75 19.3395V44.0728C78.75 44.2284 78.8278 44.3839 78.9833 44.5395L83.1833 52.2395L82.0167 52.7062L74.0833 43.6062ZM69.65 52.2395L73.15 46.1728L74.7833 48.0395L71.05 52.4728L69.65 52.2395ZM69.4167 54.5728C70.9722 54.5728 72.3333 55.1562 73.5 56.3228C74.6667 57.4895 75.25 58.8506 75.25 60.4062C75.25 61.9617 74.6667 63.3228 73.5 64.4895C72.3333 65.6562 70.9722 66.2395 69.4167 66.2395C67.8611 66.2395 66.5 65.6562 65.3333 64.4895C64.1667 63.3228 63.5833 61.9617 63.5833 60.4062C63.5833 58.8506 64.1667 57.4895 65.3333 56.3228C66.5 55.1562 67.8611 54.5728 69.4167 54.5728ZM103.25 29.8395C105.272 26.8839 106.283 23.2673 106.283 18.9895C106.283 14.7117 105.311 11.0173 103.367 7.90617C101.422 4.79506 98.9722 3.2395 96.0167 3.2395C93.0611 3.2395 90.6111 4.79506 88.6667 7.90617C86.7222 11.0173 85.75 14.7117 85.75 18.9895C85.75 23.2673 86.6833 26.8839 88.55 29.8395C89.3278 31.0839 90.2611 32.1728 91.35 33.1062L92.5167 39.4062L91.5833 47.5728C91.5833 48.6617 91.9333 49.6728 92.6333 50.6062C93.3333 51.5395 94.3055 52.0839 95.55 52.2395C96.7944 52.3951 97.8833 52.0839 98.8167 51.3062C99.75 50.5284 100.217 49.5173 100.217 48.2728V47.5728L99.5167 39.4062L100.45 33.1062C101.694 32.1728 102.628 31.0839 103.25 29.8395ZM97.4167 49.2062C97.1055 49.6728 96.6778 49.9062 96.1333 49.9062C95.5889 49.9062 95.0833 49.7117 94.6167 49.3228C94.15 48.9339 93.9167 48.4284 93.9167 47.8062L94.85 39.1728L93.9167 34.5062C95.3167 34.8173 96.6389 34.8173 97.8833 34.5062L97.1833 39.4062L97.8833 47.8062C98.0389 48.2728 97.8833 48.7395 97.4167 49.2062ZM96.0167 32.4062C93.9944 32.4062 92.1667 31.1228 90.5333 28.5562C88.9 25.9895 88.0833 22.8006 88.0833 18.9895C88.0833 15.1784 88.9 11.9895 90.5333 9.42284C92.1667 6.85617 93.9944 5.57284 96.0167 5.57284C98.0389 5.57284 99.8667 6.85617 101.5 9.42284C103.133 11.9895 103.95 15.1784 103.95 18.9895C103.95 22.8006 103.133 25.9895 101.5 28.5562C99.8667 31.1228 98.0389 32.4062 96.0167 32.4062ZM92.5167 21.9062V19.5728H94.85V21.9062H92.5167ZM92.5167 26.5728V24.2395H94.85V26.5728H92.5167ZM92.5167 12.5728V10.2395H94.85V12.5728H92.5167ZM92.5167 17.2395V14.9062H94.85V17.2395H92.5167ZM97.1833 12.5728V10.2395H99.5167V12.5728H97.1833ZM97.1833 17.2395V14.9062H99.5167V17.2395H97.1833ZM97.1833 26.5728V24.2395H99.5167V26.5728H97.1833ZM97.1833 21.9062V19.5728H99.5167V21.9062H97.1833ZM124.25 42.4395V6.7395C124.25 5.80617 123.9 4.9895 123.2 4.2895C122.5 3.5895 121.683 3.2395 120.75 3.2395H111.417C111.106 3.2395 110.833 3.35617 110.6 3.5895C110.367 3.82284 110.25 4.09506 110.25 4.40617C110.25 4.71728 110.367 4.9895 110.6 5.22284C110.833 5.45617 111.106 5.57284 111.417 5.57284H117.25V7.90617H111.417C111.106 7.90617 110.833 8.02284 110.6 8.25617C110.367 8.4895 110.25 8.76172 110.25 9.07283C110.25 9.38395 110.367 9.65617 110.6 9.8895C110.833 10.1228 111.106 10.2395 111.417 10.2395H117.25V12.5728H111.417C111.106 12.5728 110.833 12.6895 110.6 12.9228C110.367 13.1562 110.25 13.4284 110.25 13.7395C110.25 14.0506 110.367 14.3228 110.6 14.5562C110.833 14.7895 111.106 14.9062 111.417 14.9062H117.25V17.2395H111.417C111.106 17.2395 110.833 17.3562 110.6 17.5895C110.367 17.8228 110.25 18.0951 110.25 18.4062C110.25 18.7173 110.367 18.9895 110.6 19.2228C110.833 19.4562 111.106 19.5728 111.417 19.5728H117.25V21.9062H111.417C111.106 21.9062 110.833 22.0228 110.6 22.2562C110.367 22.4895 110.25 22.7617 110.25 23.0728C110.25 23.3839 110.367 23.6562 110.6 23.8895C110.833 24.1228 111.106 24.2395 111.417 24.2395H117.25V26.5728H111.417C111.106 26.5728 110.833 26.6895 110.6 26.9228C110.367 27.1562 110.25 27.4284 110.25 27.7395C110.25 28.0506 110.367 28.3228 110.6 28.5562C110.833 28.7895 111.106 28.9062 111.417 28.9062H117.25V31.2395H111.417C111.106 31.2395 110.833 31.3562 110.6 31.5895C110.367 31.8228 110.25 32.0951 110.25 32.4062C110.25 32.7173 110.367 32.9895 110.6 33.2228C110.833 33.4562 111.106 33.5728 111.417 33.5728H117.25V35.9062H111.417C111.106 35.9062 110.833 36.0228 110.6 36.2562C110.367 36.4895 110.25 36.7617 110.25 37.0728C110.25 37.3839 110.367 37.6562 110.6 37.8895C110.833 38.1228 111.106 38.2395 111.417 38.2395H117.25V40.5728C114.761 40.5728 112.428 41.1951 110.25 42.4395C108.072 43.6839 106.361 45.3951 105.117 47.5728C103.872 49.7506 103.25 52.0839 103.25 54.5728C103.25 57.0617 103.872 59.3951 105.117 61.5728C106.361 63.7506 108.072 65.4617 110.25 66.7062C112.428 67.9506 114.761 68.5728 117.25 68.5728C119.739 68.5728 122.072 67.9506 124.25 66.7062C126.428 65.4617 128.139 63.7506 129.383 61.5728C130.628 59.3951 131.25 57.0617 131.25 54.5728C131.25 52.0839 130.628 49.7506 129.383 47.5728C128.139 45.3951 126.428 43.6839 124.25 42.4395ZM119.583 40.8062V5.57284H120.75C121.061 5.57284 121.333 5.6895 121.567 5.92284C121.8 6.15617 121.917 6.42839 121.917 6.7395V41.2728C121.139 41.1173 120.361 40.9617 119.583 40.8062ZM117.25 66.2395C113.983 66.2395 111.222 65.1117 108.967 62.8562C106.711 60.6006 105.583 57.8395 105.583 54.5728C105.583 51.3062 106.711 48.5451 108.967 46.2895C111.222 44.0339 113.983 42.9062 117.25 42.9062C120.517 42.9062 123.278 44.0339 125.533 46.2895C127.789 48.5451 128.917 51.3062 128.917 54.5728C128.917 57.8395 127.789 60.6006 125.533 62.8562C123.278 65.1117 120.517 66.2395 117.25 66.2395ZM120.517 55.9728C120.361 55.0395 119.856 54.3395 119 53.8728C118.144 53.4062 117.172 53.3284 116.083 53.6395C114.994 53.9506 114.294 54.7284 113.983 55.9728C113.05 56.1284 112.35 56.6339 111.883 57.4895C111.417 58.3451 111.3 59.2006 111.533 60.0562C111.767 60.9117 112.194 61.5728 112.817 62.0395C113.439 62.5062 114.139 62.7395 114.917 62.7395H119.583C120.517 62.7395 121.333 62.3895 122.033 61.6895C122.733 60.9895 123.083 60.2117 123.083 59.3562C123.083 58.5006 122.85 57.7617 122.383 57.1395C121.917 56.5173 121.294 56.1284 120.517 55.9728ZM119.583 60.4062H114.917L114.45 60.1728C114.139 60.0173 113.944 59.8228 113.867 59.5895C113.789 59.3562 113.828 59.0451 113.983 58.6562C114.139 58.2673 114.411 58.0728 114.8 58.0728C115.189 58.0728 115.5 57.9562 115.733 57.7228C115.967 57.4895 116.083 57.2173 116.083 56.9062C116.083 56.5951 116.2 56.3228 116.433 56.0895C116.667 55.8562 116.939 55.7395 117.25 55.7395C117.561 55.7395 117.833 55.8562 118.067 56.0895C118.3 56.3228 118.417 56.5951 118.417 56.9062C118.417 57.2173 118.533 57.4895 118.767 57.7228C119 57.9562 119.272 58.0728 119.583 58.0728C119.894 58.0728 120.167 58.1895 120.4 58.4228C120.633 58.6562 120.75 58.9284 120.75 59.2395C120.75 59.5506 120.633 59.8228 120.4 60.0562C120.167 60.2895 119.894 60.4062 119.583 60.4062ZM117.25 52.2395C118.028 52.2395 118.728 51.9673 119.35 51.4228C119.972 50.8784 120.283 50.1784 120.283 49.3228C120.283 48.4673 119.972 47.7673 119.35 47.2228C118.728 46.6784 118.028 46.4062 117.25 46.4062C116.472 46.4062 115.811 46.6784 115.267 47.2228C114.722 47.7673 114.45 48.4673 114.45 49.3228C114.45 50.1784 114.722 50.8784 115.267 51.4228C115.811 51.9673 116.472 52.2395 117.25 52.2395ZM117.25 48.7395C117.717 48.7395 117.95 48.9339 117.95 49.3228C117.95 49.7117 117.756 49.9062 117.367 49.9062C116.978 49.9062 116.783 49.7117 116.783 49.3228C116.783 48.9339 116.939 48.7395 117.25 48.7395ZM113.75 52.7062C113.75 51.9284 113.478 51.2673 112.933 50.7228C112.389 50.1784 111.689 49.9062 110.833 49.9062C109.978 49.9062 109.278 50.1784 108.733 50.7228C108.189 51.2673 107.917 51.9673 107.917 52.8228C107.917 53.6784 108.189 54.3784 108.733 54.9228C109.278 55.4673 109.978 55.7395 110.833 55.7395C111.689 55.7395 112.389 55.4673 112.933 54.9228C113.478 54.3784 113.75 53.6395 113.75 52.7062ZM110.95 53.4062C110.483 53.4062 110.25 53.2117 110.25 52.8228C110.25 52.4339 110.444 52.2395 110.833 52.2395C111.222 52.2395 111.417 52.4339 111.417 52.8228C111.417 53.2117 111.261 53.4062 110.95 53.4062ZM120.75 52.7062C120.75 53.6395 121.022 54.3784 121.567 54.9228C122.111 55.4673 122.811 55.7395 123.667 55.7395C124.522 55.7395 125.222 55.4673 125.767 54.9228C126.311 54.3784 126.583 53.6784 126.583 52.8228C126.583 51.9673 126.311 51.2673 125.767 50.7228C125.222 50.1784 124.522 49.9062 123.667 49.9062C122.811 49.9062 122.111 50.1784 121.567 50.7228C121.022 51.2673 120.75 51.9284 120.75 52.7062ZM124.25 52.7062C124.25 53.1728 124.056 53.4062 123.667 53.4062C123.278 53.4062 123.083 53.2117 123.083 52.8228C123.083 52.4339 123.278 52.2395 123.667 52.2395C124.056 52.2395 124.25 52.3951 124.25 52.7062Z" fill="#894B8D"/>
<defs>
<clipPath id="clip0_138_1087">
<rect width="85" height="68" fill="white" transform="translate(53.75 12.9062)"/>
</clipPath>
</defs>
</svg>
