<svg width="193" height="81" viewBox="0 0 193 81" fill="none" xmlns="http://www.w3.org/2000/svg">
<g clip-path="url(#clip0_138_1085)">
<path d="M57.0457 57.4799C49.894 51.9332 56.5265 39.8061 69.5922 34.5394L84.1137 28.6858C85.7261 28.0359 87.2971 27.2509 88.7849 26.3516L102.941 17.796C114.799 10.6291 128.308 12.4023 128.807 21.1912L129.189 27.9117C129.292 29.7273 129.984 31.3315 131.217 32.6106L135.884 37.452C141.711 43.4974 134.567 54.9778 121.97 59.8121L106.956 65.5742C104.703 66.4387 102.525 67.5673 100.532 68.9025L91.2442 75.125C78.9397 83.3688 63.94 81.5815 64.1131 71.8921L64.2025 66.8864C64.2469 64.4058 63.2357 62.2808 61.2944 60.7752L57.0457 57.4799Z" fill="#F2E5F3"/>
</g>
<path d="M74.55 53.173L68.7167 58.073C67.6278 58.8508 67.0833 59.9008 67.0833 61.223C67.0833 62.5452 67.6278 63.6341 68.7167 64.4897C69.8056 65.3452 71.0889 65.773 72.5667 65.773C74.0444 65.773 75.3278 65.3841 76.4167 64.6063L82.0167 59.7063C83.1056 58.773 83.65 57.6841 83.65 56.4397C83.65 55.1952 83.1056 54.1063 82.0167 53.173C80.9278 52.2397 79.6444 51.773 78.1667 51.773C76.6889 51.773 75.4833 52.2397 74.55 53.173ZM80.15 58.073L74.55 62.973C73.9278 63.2841 73.2667 63.4397 72.5667 63.4397C71.8667 63.4397 71.2444 63.2452 70.7 62.8563C70.1556 62.4674 69.8833 61.9619 69.8833 61.3397C69.8833 60.7174 70.1167 60.173 70.5833 59.7063L76.4167 54.8063C76.8833 54.3397 77.5056 54.1063 78.2833 54.1063C79.0611 54.1063 79.6833 54.3397 80.15 54.8063C80.6167 55.273 80.85 55.8174 80.85 56.4397C80.85 57.0619 80.6167 57.6063 80.15 58.073ZM88.55 47.573L85.9833 49.9063L85.05 48.973C83.1833 47.4174 80.9278 46.6397 78.2833 46.6397C75.6389 46.6397 73.3833 47.4174 71.5167 48.973L64.05 55.5063C62.1833 57.0619 61.25 58.9674 61.25 61.223C61.25 63.4786 62.1833 65.3841 64.05 66.9397L65.9167 68.573C67.7833 70.1286 70 70.9063 72.5667 70.9063C75.1333 70.9063 77.35 70.1286 79.2167 68.573L96.25 54.1063L113.283 68.573C115.15 70.1286 117.367 70.9063 119.933 70.9063C122.5 70.9063 124.717 70.1286 126.583 68.573L128.45 66.9397C130.317 65.3841 131.25 63.4786 131.25 61.223C131.25 58.9674 130.317 57.0619 128.45 55.5063L120.983 48.973C119.117 47.4174 116.861 46.6397 114.217 46.6397C111.572 46.6397 109.317 47.4174 107.45 48.973L106.517 49.9063L103.95 47.573L119.117 34.5063C120.517 33.4174 121.217 32.0563 121.217 30.423C121.217 28.7897 120.517 27.4286 119.117 26.3397L117.25 24.7063C118.183 20.973 117.872 17.3174 116.317 13.7397C114.761 10.1619 112.156 7.323 108.5 5.223C104.844 3.123 100.761 2.073 96.25 2.073C91.7389 2.073 87.6556 3.123 84 5.223C80.3444 7.323 77.7 10.1619 76.0667 13.7397C74.4333 17.3174 74.1611 20.973 75.25 24.7063L73.15 26.3397C71.9056 27.4286 71.2833 28.7897 71.2833 30.423C71.2833 32.0563 71.9056 33.4174 73.15 34.5063L88.55 47.573ZM87.85 51.5397L93.2167 46.873L96.95 50.1397L91.5833 54.8063L87.85 51.5397ZM89.7167 56.4397L77.35 66.9397C75.95 68.0286 74.3556 68.573 72.5667 68.573C70.7778 68.573 69.1833 68.0286 67.7833 66.9397L65.9167 65.3063C64.6722 64.2174 64.05 62.8563 64.05 61.223C64.05 59.5897 64.6722 58.2286 65.9167 57.1397L73.6167 50.6063C74.8611 49.5174 76.4167 48.973 78.2833 48.973C80.15 48.973 81.7056 49.5174 82.95 50.6063L89.7167 56.4397ZM118.883 50.6063L126.583 57.1397C127.828 58.2286 128.45 59.5897 128.45 61.223C128.45 62.8563 127.828 64.2174 126.583 65.3063L124.717 66.9397C123.317 68.0286 121.722 68.573 119.933 68.573C118.144 68.573 116.55 68.0286 115.15 66.9397L102.783 56.4397L109.55 50.6063C110.794 49.5174 112.35 48.973 114.217 48.973C116.083 48.973 117.639 49.5174 118.883 50.6063ZM101.85 49.2063L104.65 51.5397L104.183 52.0063L100.917 54.8063L98.1167 52.473L101.85 49.2063ZM116.317 27.273L117.25 27.973C118.028 28.5952 118.417 29.4119 118.417 30.423C118.417 31.4341 118.028 32.2508 117.25 32.873L98.8167 48.5063L95.0833 45.2397L116.317 27.273ZM96.25 38.7063C97.1833 38.7063 98.1167 38.6286 99.05 38.473L96.25 41.0397L93.45 38.7063C94.3833 38.7063 95.3167 38.7063 96.25 38.7063ZM96.25 4.40633C99.6722 4.40633 102.822 5.10633 105.7 6.50633C108.578 7.90633 110.872 9.85078 112.583 12.3397C114.294 14.8286 115.15 17.5508 115.15 20.5063C115.15 22.373 114.761 24.2397 113.983 26.1063L102.783 35.4397C99.6722 36.5286 96.4833 36.8397 93.2167 36.373C89.95 35.9063 87.0333 34.7786 84.4667 32.9897C81.9 31.2008 79.9944 28.9841 78.75 26.3397C77.8167 24.473 77.35 22.5286 77.35 20.5063C77.35 17.5508 78.2056 14.8286 79.9167 12.3397C81.6278 9.85078 83.9222 7.90633 86.8 6.50633C89.6778 5.10633 92.8278 4.40633 96.25 4.40633ZM90.65 45.9397L75.25 32.873C74.4722 32.2508 74.0833 31.4341 74.0833 30.423C74.0833 29.4119 74.4722 28.5952 75.25 27.973L76.1833 27.273H76.4167C77.5056 29.6063 79.0611 31.6286 81.0833 33.3397C83.1056 35.0508 85.4389 36.373 88.0833 37.3063L94.3833 42.673L90.65 45.9397ZM110.483 59.7063L116.083 64.6063C116.861 65.073 117.678 65.423 118.533 65.6563C119.389 65.8897 120.283 65.8897 121.217 65.6563C122.15 65.423 122.967 65.0341 123.667 64.4897C124.367 63.9452 124.833 63.2841 125.067 62.5063C125.3 61.7286 125.3 60.9119 125.067 60.0563C124.833 59.2008 124.406 58.5397 123.783 58.073L117.95 53.173C117.017 52.2397 115.811 51.773 114.333 51.773C112.856 51.773 111.572 52.2397 110.483 53.173C109.394 54.1063 108.85 55.1952 108.85 56.4397C108.85 57.6841 109.394 58.773 110.483 59.7063ZM112.35 54.8063C112.817 54.3397 113.439 54.1063 114.217 54.1063C114.994 54.1063 115.617 54.3397 116.083 54.8063L121.917 59.7063C122.383 60.173 122.617 60.7174 122.617 61.3397C122.617 61.9619 122.344 62.4674 121.8 62.8563C121.256 63.2452 120.633 63.4397 119.933 63.4397C119.233 63.4397 118.572 63.2841 117.95 62.973L112.35 58.073C111.728 57.6063 111.417 57.0619 111.417 56.4397C111.417 55.8174 111.728 55.273 112.35 54.8063ZM94.85 24.9397V27.273H92.2833C91.8167 27.273 91.4667 27.3897 91.2333 27.623C91 27.8563 90.8833 28.1286 90.8833 28.4397C90.8833 28.7508 91 29.023 91.2333 29.2563C91.4667 29.4897 91.8167 29.6063 92.2833 29.6063H94.85V33.1063C94.85 33.4174 95.0056 33.6897 95.3167 33.923C95.6278 34.1563 95.9389 34.273 96.25 34.273C96.5611 34.273 96.8722 34.1563 97.1833 33.923C97.4944 33.6897 97.65 33.4174 97.65 33.1063V29.6063H100.217C100.683 29.6063 101.033 29.4897 101.267 29.2563C101.5 29.023 101.617 28.7508 101.617 28.4397C101.617 28.1286 101.5 27.8563 101.267 27.623C101.033 27.3897 100.683 27.273 100.217 27.273H97.65V24.9397C100.45 24.6286 102.744 23.5397 104.533 21.673C106.322 19.8063 107.139 17.6674 106.983 15.2563C106.828 12.8452 105.7 10.823 103.6 9.18967C101.5 7.55633 99.05 6.73966 96.25 6.73966C93.45 6.73966 91 7.55633 88.9 9.18967C86.8 10.823 85.6722 12.8452 85.5167 15.2563C85.3611 17.6674 86.1778 19.8063 87.9667 21.673C89.7556 23.5397 92.05 24.6286 94.85 24.9397ZM96.25 8.83966C98.4278 8.83966 100.333 9.53966 101.967 10.9397C103.6 12.3397 104.417 13.973 104.417 15.8397C104.417 17.7063 103.6 19.3008 101.967 20.623C100.333 21.9452 98.4278 22.6063 96.25 22.6063C94.0722 22.6063 92.1667 21.9452 90.5333 20.623C88.9 19.3008 88.0833 17.7063 88.0833 15.8397C88.0833 13.973 88.9 12.3397 90.5333 10.9397C92.1667 9.53966 94.0722 8.83966 96.25 8.83966Z" fill="#894B8D"/>
<defs>
<clipPath id="clip0_138_1085">
<rect width="85" height="68" fill="white" transform="translate(53.75 12.9062)"/>
</clipPath>
</defs>
</svg>
