<svg width="193" height="81" viewBox="0 0 193 81" fill="none" xmlns="http://www.w3.org/2000/svg">
<g clip-path="url(#clip0_138_1086)">
<path d="M57.5457 57.4799C50.3939 51.9332 57.0264 39.8061 70.0922 34.5394L84.6137 28.6858C86.2261 28.0359 87.7971 27.2509 89.2849 26.3516L103.441 17.796C115.299 10.6291 128.808 12.4023 129.307 21.1912L129.689 27.9117C129.792 29.7273 130.484 31.3315 131.717 32.6106L136.384 37.452C142.211 43.4974 135.067 54.9778 122.47 59.8121L107.456 65.5742C105.203 66.4387 103.025 67.5673 101.032 68.9025L91.7442 75.125C79.4397 83.3688 64.44 81.5815 64.6131 71.8921L64.7025 66.8864C64.7469 64.4058 63.7356 62.2808 61.7944 60.7752L57.5457 57.4799Z" fill="#F2E5F3"/>
</g>
<path d="M79.25 0.90625C78.7833 0.90625 78.4333 1.02292 78.2 1.25625C77.9667 1.48958 77.85 1.76181 77.85 2.07292V14.9062H74.8167C73.5722 14.9062 72.5222 15.2562 71.6667 15.9562C70.8111 16.6562 70.3833 17.4729 70.3833 18.4062V19.5729C69.2944 19.5729 68.3222 19.9229 67.4667 20.6229C66.6111 21.3229 66.1833 22.1396 66.1833 23.0729V49.9063H63.15C62.8389 49.9063 62.5278 50.0229 62.2167 50.2562C61.9056 50.4896 61.75 50.7618 61.75 51.0729V52.2396C61.75 53.484 62.3333 54.5729 63.5 55.5062C64.6667 56.4396 66.0278 56.9062 67.5833 56.9062H73.4167V63.9063H70.6167C69.3722 63.9063 68.3222 64.2562 67.4667 64.9562C66.6111 65.6562 66.1833 66.4729 66.1833 67.4063V69.7396C66.1833 70.0507 66.3 70.3229 66.5333 70.5562C66.7667 70.7896 67.1167 70.9062 67.5833 70.9062H90.9167C91.3833 70.9062 91.7333 70.7896 91.9667 70.5562C92.2 70.3229 92.3167 70.0507 92.3167 69.7396V67.4063C92.3167 66.4729 91.8889 65.6562 91.0333 64.9562C90.1778 64.2562 89.1278 63.9063 87.8833 63.9063H85.0833V56.9062H90.9167C92.4722 56.9062 93.8333 56.4396 95 55.5062C96.1667 54.5729 96.75 53.484 96.75 52.2396V51.0729C96.75 50.7618 96.5944 50.4896 96.2833 50.2562C95.9722 50.0229 95.6611 49.9063 95.35 49.9063H92.3167V23.0729C92.3167 22.1396 91.8889 21.3229 91.0333 20.6229C90.1778 19.9229 89.1278 19.5729 87.8833 19.5729V18.4062C88.0389 17.4729 87.6889 16.6562 86.8333 15.9562C85.9778 15.2562 84.9278 14.9062 83.6833 14.9062H80.65V2.07292C80.65 1.76181 80.5333 1.48958 80.3 1.25625C80.0667 1.02292 79.7167 0.90625 79.25 0.90625ZM89.5167 67.4063V68.5729H68.9833V67.4063C68.9833 67.0951 69.1389 66.8229 69.45 66.5896C69.7611 66.3562 70.15 66.2396 70.6167 66.2396H88.1167C88.4278 66.2396 88.7389 66.3562 89.05 66.5896C89.3611 66.8229 89.5167 67.0951 89.5167 67.4063ZM82.2833 56.9062V63.9063H76.45V56.9062H82.2833ZM90.9167 54.5729H67.5833C66.8056 54.5729 66.1444 54.3396 65.6 53.8729C65.0556 53.4062 64.7833 52.8618 64.7833 52.2396H93.95C93.95 52.8618 93.6389 53.4062 93.0167 53.8729C92.3944 54.3396 91.6944 54.5729 90.9167 54.5729ZM89.5167 49.9063H68.9833V47.5729H72.0167C72.3278 47.5729 72.6389 47.4562 72.95 47.2229C73.2611 46.9896 73.4167 46.7174 73.4167 46.4062C73.4167 46.0951 73.2611 45.8229 72.95 45.5896C72.6389 45.3562 72.3278 45.2396 72.0167 45.2396H68.9833V41.2729C71.3167 42.5174 73.8056 43.0618 76.45 42.9063C79.5611 42.9063 82.5167 42.2063 85.3167 40.8063C86.5611 40.184 87.9611 39.7174 89.5167 39.4062V49.9063ZM89.5167 23.0729V37.0729C87.4944 37.384 85.6278 37.9285 83.9167 38.7063C81.5833 39.9507 79.0944 40.5729 76.45 40.5729C74.1167 40.5729 72.25 40.184 70.85 39.4062C70.0722 39.0951 69.45 38.6285 68.9833 38.0062V37.0729H72.0167C72.3278 37.0729 72.6389 36.9562 72.95 36.7229C73.2611 36.4896 73.4167 36.2174 73.4167 35.9062C73.4167 35.5951 73.2611 35.3229 72.95 35.0896C72.6389 34.8562 72.3278 34.7396 72.0167 34.7396H68.9833V31.2396H72.0167C72.3278 31.2396 72.6389 31.1229 72.95 30.8896C73.2611 30.6562 73.4167 30.384 73.4167 30.0729C73.4167 29.7618 73.2611 29.4896 72.95 29.2562C72.6389 29.0229 72.3278 28.9062 72.0167 28.9062H68.9833V23.0729C68.9833 22.7618 69.1389 22.4896 69.45 22.2562C69.7611 22.0229 70.15 21.9063 70.6167 21.9063H88.1167C88.4278 21.9063 88.7389 22.0229 89.05 22.2562C89.3611 22.4896 89.5167 22.7618 89.5167 23.0729ZM85.0833 18.4062V19.5729H73.4167V18.4062C73.4167 18.0951 73.5722 17.8229 73.8833 17.5896C74.1944 17.3562 74.5056 17.2396 74.8167 17.2396H83.6833C83.9944 17.2396 84.3056 17.3562 84.6167 17.5896C84.9278 17.8229 85.0833 18.0951 85.0833 18.4062ZM105.617 38.7063L101.883 41.9729C100.328 43.0618 99.55 44.384 99.55 45.9396V67.4063C99.7056 68.3396 100.172 69.1562 100.95 69.8562C101.728 70.5562 102.739 70.9062 103.983 70.9062H127.317C128.561 70.9062 129.611 70.5562 130.467 69.8562C131.322 69.1562 131.75 68.3396 131.75 67.4063V45.9396C131.75 44.384 131.05 43.0618 129.65 41.9729L125.683 38.7063C124.906 38.084 124.517 37.3062 124.517 36.3729V35.9062C125.294 35.9062 125.956 35.6729 126.5 35.2062C127.044 34.7396 127.317 34.1951 127.317 33.5729V31.2396C127.317 30.6174 127.044 30.0729 126.5 29.6063C125.956 29.1396 125.294 28.9062 124.517 28.9062H123.117V27.7396C123.117 26.8063 122.689 25.9896 121.833 25.2896C120.978 24.5896 119.928 24.2396 118.683 24.2396H112.85C111.606 24.2396 110.556 24.5896 109.7 25.2896C108.844 25.9896 108.417 26.8063 108.417 27.7396V28.9062H107.017C106.239 28.9062 105.539 29.1396 104.917 29.6063C104.294 30.0729 103.983 30.6174 103.983 31.2396V33.5729C103.983 34.1951 104.294 34.7396 104.917 35.2062C105.539 35.6729 106.239 35.9062 107.017 35.9062V36.3729C107.017 37.3062 106.55 38.084 105.617 38.7063ZM128.95 49.9063V61.5729H102.583V49.9063H128.95ZM127.317 68.5729H103.983C103.672 68.5729 103.361 68.4562 103.05 68.2229C102.739 67.9896 102.583 67.7174 102.583 67.4063V63.9063H128.95V67.4063C128.794 67.7174 128.6 67.9896 128.367 68.2229C128.133 68.4562 127.783 68.5729 127.317 68.5729ZM111.45 28.9062V27.7396C111.294 27.4285 111.372 27.1562 111.683 26.9229C111.994 26.6896 112.383 26.5729 112.85 26.5729H118.683C118.994 26.5729 119.306 26.6896 119.617 26.9229C119.928 27.1562 120.083 27.4285 120.083 27.7396V28.9062H111.45ZM107.017 33.5729V31.2396H124.517V33.5729H107.017ZM103.75 43.6062L107.717 40.3396C109.117 39.2507 109.817 37.9285 109.817 36.3729V35.9062H121.483V36.3729C121.483 37.9285 122.183 39.2507 123.583 40.3396L127.55 43.6062C128.328 44.2285 128.794 45.0062 128.95 45.9396V47.5729H102.583V45.9396C102.583 45.0062 102.972 44.2285 103.75 43.6062ZM112.85 56.9062H114.25V58.0729C114.25 58.384 114.406 58.6562 114.717 58.8896C115.028 59.1229 115.378 59.2396 115.767 59.2396C116.156 59.2396 116.506 59.1229 116.817 58.8896C117.128 58.6562 117.283 58.384 117.283 58.0729V56.9062H118.683C118.994 56.9062 119.306 56.7896 119.617 56.5563C119.928 56.3229 120.083 56.0507 120.083 55.7396C120.083 55.4285 119.928 55.1563 119.617 54.9229C119.306 54.6896 118.994 54.5729 118.683 54.5729H117.283V53.4062C117.283 53.0951 117.128 52.8229 116.817 52.5896C116.506 52.3562 116.156 52.2396 115.767 52.2396C115.378 52.2396 115.028 52.3562 114.717 52.5896C114.406 52.8229 114.25 53.0951 114.25 53.4062V54.5729H112.85C112.383 54.5729 112.033 54.6896 111.8 54.9229C111.567 55.1563 111.45 55.4285 111.45 55.7396C111.45 56.0507 111.567 56.3229 111.8 56.5563C112.033 56.7896 112.383 56.9062 112.85 56.9062Z" fill="#894B8D"/>
<defs>
<clipPath id="clip0_138_1086">
<rect width="85" height="68" fill="white" transform="translate(54.25 12.9062)"/>
</clipPath>
</defs>
</svg>
