<svg width="193" height="81" viewBox="0 0 193 81" fill="none" xmlns="http://www.w3.org/2000/svg">
<g clip-path="url(#clip0_138_1084)">
<path d="M57.5457 57.4799C50.394 51.9332 57.0264 39.8061 70.0922 34.5394L84.6137 28.6858C86.2261 28.0359 87.7971 27.2509 89.2849 26.3516L103.441 17.796C115.299 10.6291 128.808 12.4023 129.307 21.1912L129.689 27.9117C129.792 29.7273 130.484 31.3315 131.717 32.6106L136.384 37.452C142.211 43.4974 135.067 54.9778 122.47 59.8121L107.456 65.5742C105.203 66.4387 103.025 67.5673 101.032 68.9025L91.7442 75.125C79.4397 83.3688 64.44 81.5815 64.6131 71.8921L64.7025 66.8864C64.7469 64.4058 63.7356 62.2808 61.7944 60.7752L57.5457 57.4799Z" fill="#F2E5F3"/>
</g>
<path d="M61.75 33.5729V38.2396C61.75 41.1951 62.7611 43.684 64.7833 45.7063C66.8056 47.7285 69.2944 48.7396 72.25 48.7396H83.9167V60.4062C83.9167 63.3618 84.9278 65.8507 86.95 67.8729C88.9722 69.8951 91.4611 70.9062 94.4167 70.9062H99.0833C102.039 70.9062 104.528 69.8951 106.55 67.8729C108.572 65.8507 109.583 63.3618 109.583 60.4062V53.6396C109.894 53.484 110.283 53.4062 110.75 53.4062C111.839 53.4062 112.772 53.7174 113.55 54.3396C114.794 55.2729 116.194 55.7396 117.75 55.7396C118.994 55.7396 120.083 55.4285 121.017 54.8062C121.95 54.184 122.65 53.3285 123.117 52.2396C123.583 50.684 123.661 49.0896 123.35 47.4563C123.039 45.8229 122.339 44.4618 121.25 43.3729C120.161 42.284 119.228 41.1174 118.45 39.8729C117.517 38.1618 116.661 36.9951 115.883 36.3729C114.483 35.284 112.772 34.7396 110.75 34.7396C108.728 34.7396 107.017 35.284 105.617 36.3729C104.839 36.9951 103.983 38.1618 103.05 39.8729C102.272 41.1174 101.339 42.284 100.25 43.3729C99.1611 44.4618 98.4611 45.8229 98.15 47.4563C97.8389 49.0896 97.9167 50.684 98.3833 52.2396C98.85 53.3285 99.55 54.184 100.483 54.8062C101.417 55.4285 102.506 55.7396 103.75 55.7396C104.994 55.7396 106.161 55.4285 107.25 54.8062V60.4062C107.25 62.584 106.433 64.4896 104.8 66.1229C103.167 67.7563 101.261 68.5729 99.0833 68.5729H94.4167C92.2389 68.5729 90.3333 67.7563 88.7 66.1229C87.0667 64.4896 86.25 62.584 86.25 60.4062V48.7396C86.25 48.1174 86.0167 47.5729 85.55 47.1062C85.0833 46.6396 84.5389 46.4062 83.9167 46.4062H72.25C70.0722 46.4062 68.1667 45.5896 66.5333 43.9562C64.9 42.3229 64.0833 40.4174 64.0833 38.2396V33.5729C64.0833 31.3951 64.9 29.4896 66.5333 27.8562C68.1667 26.2229 70.0722 25.4063 72.25 25.4063H83.9167C84.5389 25.4063 85.0833 25.1729 85.55 24.7062C86.0167 24.2396 86.25 23.6951 86.25 23.0729V11.4063C86.25 9.22847 87.0667 7.32292 88.7 5.68958C90.3333 4.05625 92.2389 3.23958 94.4167 3.23958H99.0833C101.261 3.23958 103.167 4.05625 104.8 5.68958C106.433 7.32292 107.25 9.22847 107.25 11.4063V20.2729C106.006 18.8729 104.489 18.2896 102.7 18.5229C100.911 18.7563 99.5889 19.7285 98.7333 21.4396C97.8778 23.1507 97.6056 24.9396 97.9167 26.8062C98.2278 28.6729 99.0056 30.3062 100.25 31.7062C101.339 32.9507 102.661 33.5729 104.217 33.5729H104.683C106.55 33.2618 107.872 32.2507 108.65 30.5396C109.272 29.2951 109.583 27.9729 109.583 26.5729V11.4063C109.583 8.45069 108.572 5.96181 106.55 3.93958C104.528 1.91736 102.039 0.90625 99.0833 0.90625H94.4167C91.4611 0.90625 88.9722 1.91736 86.95 3.93958C84.9278 5.96181 83.9167 8.45069 83.9167 11.4063V23.0729H72.25C69.2944 23.0729 66.8056 24.084 64.7833 26.1062C62.7611 28.1285 61.75 30.6174 61.75 33.5729ZM103.75 53.4062C102.972 53.4062 102.311 53.2507 101.767 52.9396C101.222 52.6285 100.794 52.1618 100.483 51.5396C100.172 50.2951 100.172 49.0896 100.483 47.9229C100.794 46.7562 101.339 45.784 102.117 45.0062C103.206 43.7618 104.178 42.4396 105.033 41.0396C105.889 39.6396 106.628 38.7063 107.25 38.2396C108.028 37.4618 109.194 37.0729 110.75 37.0729C112.306 37.0729 113.472 37.4618 114.25 38.2396C114.872 38.7063 115.611 39.6396 116.467 41.0396C117.322 42.4396 118.294 43.7618 119.383 45.0062C120.161 45.784 120.706 46.7562 121.017 47.9229C121.328 49.0896 121.328 50.2951 121.017 51.5396C120.706 52.1618 120.278 52.6285 119.733 52.9396C119.189 53.2507 118.528 53.4062 117.75 53.4062C116.661 53.4062 115.728 53.0951 114.95 52.4729C113.706 51.5396 112.306 51.0729 110.75 51.0729C109.194 51.0729 107.794 51.5396 106.55 52.4729C105.772 53.0951 104.839 53.4062 103.75 53.4062ZM106.55 29.3729C106.239 30.4618 105.539 31.084 104.45 31.2396C103.361 31.3951 102.506 31.0062 101.883 30.0729C100.95 29.1396 100.367 27.9729 100.133 26.5729C99.9 25.1729 100.094 23.8507 100.717 22.6062C101.183 21.6729 101.922 21.0896 102.933 20.8563C103.944 20.6229 104.839 20.9729 105.617 21.9063C106.394 22.8396 106.939 24.0063 107.25 25.4063V26.5729C107.25 27.6618 107.017 28.5951 106.55 29.3729ZM92.0833 30.7729C90.9944 31.3951 90.2944 32.4062 89.9833 33.8062C89.6722 35.2062 89.8278 36.684 90.45 38.2396C90.9167 39.1729 91.6167 39.9507 92.55 40.5729C93.4833 41.1951 94.4944 41.584 95.5833 41.7396C96.2056 41.7396 96.75 41.584 97.2167 41.2729C98.3056 40.8062 99.0444 39.834 99.4333 38.3562C99.8222 36.8785 99.6667 35.4396 98.9667 34.0396C98.2667 32.6396 97.2556 31.6285 95.9333 31.0062C94.6111 30.384 93.3278 30.3062 92.0833 30.7729ZM96.2833 39.1729C95.6611 39.484 95 39.4451 94.3 39.0563C93.6 38.6674 93.0167 38.0451 92.55 37.1896C92.0833 36.334 91.9278 35.4785 92.0833 34.6229C92.2389 33.7674 92.6278 33.184 93.25 32.8729C93.4056 32.8729 93.6389 32.8729 93.95 32.8729C95.35 33.0285 96.2833 33.7285 96.75 34.9729C97.2167 35.9063 97.3722 36.8007 97.2167 37.6562C97.0611 38.5118 96.75 39.0174 96.2833 39.1729ZM116.817 33.5729C116.972 33.5729 117.128 33.5729 117.283 33.5729C118.839 33.5729 120.161 32.9507 121.25 31.7062C122.494 30.3062 123.272 28.6729 123.583 26.8062C123.894 24.9396 123.622 23.1507 122.767 21.4396C121.911 19.7285 120.667 18.7563 119.033 18.5229C117.4 18.2896 115.883 18.834 114.483 20.1562C113.083 21.4785 112.267 23.1118 112.033 25.0562C111.8 27.0007 112.072 28.8285 112.85 30.5396C113.628 32.2507 114.95 33.2618 116.817 33.5729ZM114.25 25.4063C114.561 24.1618 115.067 23.0729 115.767 22.1396C116.467 21.2062 117.283 20.7396 118.217 20.7396H118.45C119.539 21.0507 120.317 21.6729 120.783 22.6062C121.406 23.8507 121.6 25.1729 121.367 26.5729C121.133 27.9729 120.55 29.1396 119.617 30.0729C118.994 31.0062 118.139 31.3951 117.05 31.2396C115.961 31.084 115.261 30.4618 114.95 29.3729C114.328 28.1285 114.094 26.8063 114.25 25.4063ZM124.283 41.2729C124.75 41.584 125.294 41.7396 125.917 41.7396C127.006 41.584 128.017 41.1951 128.95 40.5729C129.883 39.9507 130.583 39.1729 131.05 38.2396C131.672 36.684 131.828 35.2062 131.517 33.8062C131.206 32.4062 130.467 31.434 129.3 30.8896C128.133 30.3451 126.889 30.384 125.567 31.0062C124.244 31.6285 123.233 32.6396 122.533 34.0396C121.833 35.4396 121.678 36.8785 122.067 38.3562C122.456 39.834 123.194 40.8062 124.283 41.2729ZM127.55 32.8729H127.783C127.939 32.8729 128.172 32.8729 128.483 32.8729C128.95 33.184 129.261 33.7674 129.417 34.6229C129.572 35.4785 129.417 36.334 128.95 37.1896C128.483 38.0451 127.9 38.6674 127.2 39.0563C126.5 39.4451 125.878 39.5229 125.333 39.2896C124.789 39.0562 124.439 38.5118 124.283 37.6562C124.128 36.8007 124.283 35.9063 124.75 34.9729C125.217 33.7285 126.15 33.0285 127.55 32.8729ZM68.75 33.5729C68.75 32.6396 69.1 31.8229 69.8 31.1229C70.5 30.4229 71.3167 30.0729 72.25 30.0729C72.5611 30.0729 72.8333 29.9562 73.0667 29.7229C73.3 29.4896 73.4167 29.2174 73.4167 28.9062C73.4167 28.5951 73.3 28.3229 73.0667 28.0896C72.8333 27.8562 72.5611 27.7396 72.25 27.7396C70.6944 27.7396 69.3333 28.3229 68.1667 29.4896C67 30.6562 66.4167 32.0174 66.4167 33.5729C66.4167 33.884 66.5333 34.1562 66.7667 34.3896C67 34.6229 67.2722 34.7396 67.5833 34.7396C67.8944 34.7396 68.1667 34.6229 68.4 34.3896C68.6333 34.1562 68.75 33.884 68.75 33.5729ZM76.9167 30.0729H78.0833C78.3944 30.0729 78.6667 29.9562 78.9 29.7229C79.1333 29.4896 79.25 29.2174 79.25 28.9062C79.25 28.5951 79.1333 28.3229 78.9 28.0896C78.6667 27.8562 78.3944 27.7396 78.0833 27.7396H76.9167C76.6056 27.7396 76.3333 27.8562 76.1 28.0896C75.8667 28.3229 75.75 28.5951 75.75 28.9062C75.75 29.2174 75.8667 29.4896 76.1 29.7229C76.3333 29.9562 76.6056 30.0729 76.9167 30.0729Z" fill="#894B8D"/>
<defs>
<clipPath id="clip0_138_1084">
<rect width="85" height="68" fill="white" transform="translate(54.25 12.9062)"/>
</clipPath>
</defs>
</svg>
